<svg viewBox="0 0 1180 680" width="1180" height="680" style="overflow:visible; font-family:'Poppins', sans-serif;">

  <defs>
    <filter id="shadow-card" x="-5%" y="-5%" width="110%" height="114%">
      <feDropShadow dx="0" dy="2" stdDeviation="3" flood-color="#243342" flood-opacity="0.06"/>
    </filter>
    <filter id="shadow-box" x="-3%" y="-4%" width="106%" height="110%">
      <feDropShadow dx="0" dy="1.5" stdDeviation="2.5" flood-color="#243342" flood-opacity="0.05"/>
    </filter>
    <marker id="arrow-slate" viewBox="0 0 10 10" refX="8" refY="5" markerWidth="6" markerHeight="6" orient="auto-start-reverse">
      <path d="M 0 1.5 L 8 5 L 0 8.5 z" fill="#334155" />
    </marker>
    <marker id="arrow-blue" viewBox="0 0 10 10" refX="8" refY="5" markerWidth="6" markerHeight="6" orient="auto-start-reverse">
      <path d="M 0 1.5 L 8 5 L 0 8.5 z" fill="#0284C7" />
    </marker>
    <marker id="arrow-red" viewBox="0 0 10 10" refX="8" refY="5" markerWidth="6" markerHeight="6" orient="auto-start-reverse">
      <path d="M 0 1.5 L 8 5 L 0 8.5 z" fill="#DC2626" />
    </marker>
  </defs>


  <!-- CADRE GLOBAL -->
  <rect x="10" y="10" width="1160" height="660" rx="14" fill="#FAFAFA" stroke="#E2E8F0" stroke-width="1.2" />

  <!-- EN-TETE BANDEAU -->
  <rect x="25" y="22" width="1130" height="42" rx="8" fill="#FFFFFF" stroke="#E2E8F0" stroke-width="1" />
  <rect x="35" y="32" width="22" height="22" rx="4" fill="#0284C7" />
  <text x="46" y="47" text-anchor="middle" font-size="10" font-weight="700" fill="#FFFFFF">WBS</text>
  <text x="68" y="46" font-size="13" font-weight="700" fill="#1E293B">Organigramme des Tâches Projet (Work Breakdown Structure)</text>
  <text x="1140" y="46" text-anchor="end" font-size="11" font-weight="500" fill="#64748B">Décomposition Hiérarchique en 6 Lots de Travaux (WP1 à WP6) · Traçabilité R1-R5</text>

  <!-- NOEUD RACINE DU WBS -->
  <g filter="url(#shadow-card)">
    <rect x="420" y="80" width="340" height="44" rx="8" fill="#243342" stroke="#1E293B" stroke-width="1" />
    <text x="590" y="98" text-anchor="middle" font-size="12" font-weight="700" fill="#FFFFFF">PROJET SHOPLOC — SYSTÈME SAAS TERRITORIAL</text>
    <text x="590" y="113" text-anchor="middle" font-size="10" font-weight="400" fill="#CBD5E1">Plateforme Bimodale : Cockpit Gouvernance &amp; Monolithe Métier</text>
  </g>

  <!-- LIGNE MAITRESSE HORIZONTALE DU WBS -->
  <path d="M 590 124 L 590 148 M 115 148 L 1065 148" stroke="#94A3B8" stroke-width="1.5" fill="none" />
  <!-- CONNECTEURS VERTICAUX VERS LES 6 LOTS -->
  <path d="M 115 148 L 115 170" stroke="#94A3B8" stroke-width="1.5" fill="none" />
  <path d="M 305 148 L 305 170" stroke="#94A3B8" stroke-width="1.5" fill="none" />
  <path d="M 495 148 L 495 170" stroke="#94A3B8" stroke-width="1.5" fill="none" />
  <path d="M 685 148 L 685 170" stroke="#94A3B8" stroke-width="1.5" fill="none" />
  <path d="M 875 148 L 875 170" stroke="#94A3B8" stroke-width="1.5" fill="none" />
  <path d="M 1065 148 L 1065 170" stroke="#94A3B8" stroke-width="1.5" fill="none" />

  <!-- ======================================================== -->
  <!-- LOT 1 : WP1 - CADRAGE STRATÉGIQUE (R1)                   -->
  <!-- ======================================================== -->
  <g filter="url(#shadow-box)">
    <rect x="25" y="170" width="180" height="475" rx="10" fill="#FFFFFF" stroke="#BAE6FD" stroke-width="1.2" />
    <!-- Tete du lot -->
    <rect x="25" y="170" width="180" height="40" rx="10" fill="#E0F2FE" />
    <rect x="25" y="195" width="180" height="15" fill="#E0F2FE" />
    <text x="115" y="187" text-anchor="middle" font-size="11" font-weight="700" fill="#0369A1">LOT 1 · WP1</text>
    <text x="115" y="202" text-anchor="middle" font-size="10" font-weight="600" fill="#0C4A6E">Cadrage &amp; CDC (R1)</text>

    <!-- Sous-taches WP1 -->
    <rect x="35" y="222" width="160" height="48" rx="6" fill="#F0F9FF" stroke="#E0F2FE" stroke-width="1" />
    <text x="43" y="238" font-size="9.5" font-weight="700" fill="#0369A1">1.1 Analyse APTE &amp; Pyramide</text>
    <text x="43" y="253" font-size="8.5" fill="#475569">Bête à cornes &amp; pieuvre (FP/FC)</text>
    <text x="43" y="264" font-size="8" fill="#64748B">Positionnement concurrentiel</text>

    <rect x="35" y="278" width="160" height="48" rx="6" fill="#F0F9FF" stroke="#E0F2FE" stroke-width="1" />
    <text x="43" y="294" font-size="9.5" font-weight="700" fill="#0369A1">1.2 Personas &amp; Journeys</text>
    <text x="43" y="309" font-size="8.5" fill="#475569">Pierre, Suzanne, Marius, Julie</text>
    <text x="43" y="320" font-size="8" fill="#64748B">Cartes d'expérience utilisateur</text>

    <rect x="35" y="334" width="160" height="48" rx="6" fill="#F0F9FF" stroke="#E0F2FE" stroke-width="1" />
    <text x="43" y="350" font-size="9.5" font-weight="700" fill="#0369A1">1.3 Processus BPMN 2.0</text>
    <text x="43" y="365" font-size="8.5" fill="#475569">P1 à P5 : C&amp;C, VFP, Mobilité</text>
    <text x="43" y="376" font-size="8" fill="#64748B">Flux nominaux &amp; exceptions</text>

    <rect x="35" y="390" width="160" height="48" rx="6" fill="#F0F9FF" stroke="#E0F2FE" stroke-width="1" />
    <text x="43" y="406" font-size="9.5" font-weight="700" fill="#0369A1">1.4 Modélisation MCD Merise</text>
    <text x="43" y="421" font-size="8.5" fill="#475569">Schéma entités-associations</text>
    <text x="43" y="432" font-size="8" fill="#64748B">Dictionnaire formel des données</text>

    <rect x="35" y="446" width="160" height="48" rx="6" fill="#F0F9FF" stroke="#E0F2FE" stroke-width="1" />
    <text x="43" y="462" font-size="9.5" font-weight="700" fill="#0369A1">1.5 Story Mapping &amp; MoSCoW</text>
    <text x="43" y="477" font-size="8.5" fill="#475569">10 US Must Have (MVP V1)</text>
    <text x="43" y="488" font-size="8" fill="#64748B">Critères d'acceptation Gherkin</text>

    <rect x="35" y="502" width="160" height="48" rx="6" fill="#F0F9FF" stroke="#E0F2FE" stroke-width="1" />
    <text x="43" y="518" font-size="9.5" font-weight="700" fill="#0369A1">1.6 Cadrage Technique C4</text>
    <text x="43" y="533" font-size="8.5" fill="#475569">C4 Contexte &amp; Conteneurs</text>
    <text x="43" y="544" font-size="8" fill="#64748B">Spécifications OpenAPI 3.1</text>

    <!-- Livrable jalon -->
    <rect x="35" y="575" width="160" height="56" rx="6" fill="#0284C7" />
    <text x="115" y="595" text-anchor="middle" font-size="9.5" font-weight="700" fill="#FFFFFF">LIVRABLE R1</text>
    <text x="115" y="609" text-anchor="middle" font-size="8.5" fill="#E0F2FE">Cahier des Charges &amp; Cadrage</text>
    <text x="115" y="621" text-anchor="middle" font-size="8" font-weight="600" fill="#BAE6FD">Rendu 18/09 · Oral 21/09</text>
  </g>

  <!-- ======================================================== -->
  <!-- LOT 2 : WP2 - OUTILLAGE & DEVOPS (R2)                    -->
  <!-- ======================================================== -->
  <g filter="url(#shadow-box)">
    <rect x="215" y="170" width="180" height="475" rx="10" fill="#FFFFFF" stroke="#FED7AA" stroke-width="1.2" />
    <rect x="215" y="170" width="180" height="40" rx="10" fill="#FFEDD5" />
    <rect x="215" y="195" width="180" height="15" fill="#FFEDD5" />
    <text x="305" y="187" text-anchor="middle" font-size="11" font-weight="700" fill="#C2410C">LOT 2 · WP2</text>
    <text x="305" y="202" text-anchor="middle" font-size="10" font-weight="600" fill="#7C2D12">Outillage &amp; DevOps (R2)</text>

    <rect x="225" y="222" width="160" height="48" rx="6" fill="#FFF7ED" stroke="#FFEDD5" stroke-width="1" />
    <text x="233" y="238" font-size="9.5" font-weight="700" fill="#C2410C">2.1 Forge GitLab &amp; Gitflow</text>
    <text x="233" y="253" font-size="8.5" fill="#475569">Protection main/develop</text>
    <text x="233" y="264" font-size="8" fill="#64748B">Convention Conventional Commits</text>

    <rect x="225" y="278" width="160" height="48" rx="6" fill="#FFF7ED" stroke="#FFEDD5" stroke-width="1" />
    <text x="233" y="294" font-size="9.5" font-weight="700" fill="#C2410C">2.2 CI/CD &amp; Qualimétrie</text>
    <text x="233" y="309" font-size="8.5" fill="#475569">Pipeline GitLab CI automatisé</text>
    <text x="233" y="320" font-size="8" fill="#64748B">Intégration SonarQube (seuil 80%)</text>

    <rect x="225" y="334" width="160" height="48" rx="6" fill="#FFF7ED" stroke="#FFEDD5" stroke-width="1" />
    <text x="233" y="350" font-size="9.5" font-weight="700" fill="#C2410C">2.3 Socle Docker Multi-Stage</text>
    <text x="233" y="365" font-size="8.5" fill="#475569">Docker Compose unifié</text>
    <text x="233" y="376" font-size="8" fill="#64748B">PostgreSQL 16 &amp; Redis 7</text>

    <rect x="225" y="390" width="160" height="48" rx="6" fill="#FFF7ED" stroke="#FFEDD5" stroke-width="1" />
    <text x="233" y="406" font-size="9.5" font-weight="700" fill="#C2410C">2.4 Serveurs Mocks REST</text>
    <text x="233" y="421" font-size="8.5" fill="#475569">Mocks Banque 2PC, Ilévia, POS</text>
    <text x="233" y="432" font-size="8" fill="#64748B">Contrats OpenAPI 3.1 simulés</text>

    <!-- Espace d'alignement -->
    <rect x="225" y="446" width="160" height="104" rx="6" fill="#FAFAFA" stroke="#E2E8F0" stroke-dasharray="3,3" />
    <text x="305" y="500" text-anchor="middle" font-size="9" fill="#94A3B8">Socle outillage &amp; validation</text>
    <text x="305" y="514" text-anchor="middle" font-size="8" fill="#CBD5E1">Préalable strict au dev R4</text>

    <!-- Livrable jalon -->
    <rect x="225" y="575" width="160" height="56" rx="6" fill="#EA580C" />
    <text x="305" y="595" text-anchor="middle" font-size="9.5" font-weight="700" fill="#FFFFFF">LIVRABLE R2</text>
    <text x="305" y="609" text-anchor="middle" font-size="8.5" fill="#FFEDD5">Choix &amp; Setup Outils Logiciels</text>
    <text x="305" y="621" text-anchor="middle" font-size="8" font-weight="600" fill="#FED7AA">Rendu 12/10/2026</text>
  </g>

  <!-- ======================================================== -->
  <!-- LOT 3 : WP3 - ÉCONOMIE & COÛTS COMPLETS (R3)             -->
  <!-- ======================================================== -->
  <g filter="url(#shadow-box)">
    <rect x="405" y="170" width="180" height="475" rx="10" fill="#FFFFFF" stroke="#FEF08A" stroke-width="1.2" />
    <rect x="405" y="170" width="180" height="40" rx="10" fill="#FEF9C3" />
    <rect x="405" y="195" width="180" height="15" fill="#FEF9C3" />
    <text x="495" y="187" text-anchor="middle" font-size="11" font-weight="700" fill="#A16207">LOT 3 · WP3</text>
    <text x="495" y="202" text-anchor="middle" font-size="10" font-weight="600" fill="#713F12">Économie &amp; ROI (R3)</text>

    <rect x="415" y="222" width="160" height="48" rx="6" fill="#FEFCE8" stroke="#FEF9C3" stroke-width="1" />
    <text x="423" y="238" font-size="9.5" font-weight="700" fill="#A16207">3.1 Méthode Coûts Complets</text>
    <text x="423" y="253" font-size="8.5" fill="#475569">Charges directes &amp; indirectes</text>
    <text x="423" y="264" font-size="8" fill="#64748B">Centres Build, Run, Support</text>

    <rect x="415" y="278" width="160" height="48" rx="6" fill="#FEFCE8" stroke="#FEF9C3" stroke-width="1" />
    <text x="423" y="294" font-size="9.5" font-weight="700" fill="#A16207">3.2 Unités d'Œuvre (UO)</text>
    <text x="423" y="309" font-size="8.5" fill="#475569">Clés de répartition analytique</text>
    <text x="423" y="320" font-size="8" fill="#64748B">Coût par habitant &amp; commerce</text>

    <rect x="415" y="334" width="160" height="48" rx="6" fill="#FEFCE8" stroke="#FEF9C3" stroke-width="1" />
    <text x="423" y="350" font-size="9.5" font-weight="700" fill="#A16207">3.3 P&amp;L Prévisionnel 3 Ans</text>
    <text x="423" y="365" font-size="8.5" fill="#475569">Investissement initial &amp; Run</text>
    <text x="423" y="376" font-size="8" fill="#64748B">Amortissement matériel/logiciel</text>

    <rect x="415" y="390" width="160" height="48" rx="6" fill="#FEFCE8" stroke="#FEF9C3" stroke-width="1" />
    <text x="423" y="406" font-size="9.5" font-weight="700" fill="#A16207">3.4 Calcul ROI &amp; VAN</text>
    <text x="423" y="421" font-size="8.5" fill="#475569">Actualisation flux de trésorerie</text>
    <text x="423" y="432" font-size="8" fill="#64748B">Seuils par strates de communes</text>

    <!-- Espace alignement -->
    <rect x="415" y="446" width="160" height="104" rx="6" fill="#FAFAFA" stroke="#E2E8F0" stroke-dasharray="3,3" />
    <text x="495" y="500" text-anchor="middle" font-size="9" fill="#94A3B8">Arbitrage financier</text>
    <text x="495" y="514" text-anchor="middle" font-size="8" fill="#CBD5E1">Modèle convention tripartite</text>

    <!-- Livrable jalon -->
    <rect x="415" y="575" width="160" height="56" rx="6" fill="#CA8A04" />
    <text x="495" y="595" text-anchor="middle" font-size="9.5" font-weight="700" fill="#FFFFFF">LIVRABLE R3</text>
    <text x="495" y="609" text-anchor="middle" font-size="8.5" fill="#FEF9C3">Étude Financière &amp; Coûts</text>
    <text x="495" y="621" text-anchor="middle" font-size="8" font-weight="600" fill="#FEF08A">Rendu 30/11/2026</text>
  </g>

  <!-- ======================================================== -->
  <!-- LOT 4 : WP4 - ARCHITECTURE & 1ER COMPOSANT (R4)          -->
  <!-- ======================================================== -->
  <g filter="url(#shadow-box)">
    <rect x="595" y="170" width="180" height="475" rx="10" fill="#FFFFFF" stroke="#DDD6FE" stroke-width="1.2" />
    <rect x="595" y="170" width="180" height="40" rx="10" fill="#EDE9FE" />
    <rect x="595" y="195" width="180" height="15" fill="#EDE9FE" />
    <text x="685" y="187" text-anchor="middle" font-size="11" font-weight="700" fill="#6D28D9">LOT 4 · WP4</text>
    <text x="685" y="202" text-anchor="middle" font-size="10" font-weight="600" fill="#4C1D95">Archi &amp; Prototype (R4)</text>

    <rect x="605" y="222" width="160" height="48" rx="6" fill="#F5F3FF" stroke="#EDE9FE" stroke-width="1" />
    <text x="613" y="238" font-size="9.5" font-weight="700" fill="#6D28D9">4.1 Vues 4+1 C4 Détaillées</text>
    <text x="613" y="253" font-size="8.5" fill="#475569">Vue fonctionnelle &amp; composants</text>
    <text x="613" y="264" font-size="8" fill="#64748B">Vue développement &amp; déploiement</text>

    <rect x="605" y="278" width="160" height="48" rx="6" fill="#F5F3FF" stroke="#EDE9FE" stroke-width="1" />
    <text x="613" y="294" font-size="9.5" font-weight="700" fill="#6D28D9">4.2 Schéma SQL &amp; Mapping</text>
    <text x="613" y="309" font-size="8.5" fill="#475569">DDL PostgreSQL 16 normalisé</text>
    <text x="613" y="320" font-size="8" fill="#64748B">Mapping objet-relationnel ORM</text>

    <rect x="605" y="334" width="160" height="48" rx="6" fill="#F5F3FF" stroke="#EDE9FE" stroke-width="1" />
    <text x="613" y="350" font-size="9.5" font-weight="700" fill="#6D28D9">4.3 1er Composant Logiciel</text>
    <text x="613" y="365" font-size="8.5" fill="#475569">Implémentation Panier 2PC</text>
    <text x="613" y="376" font-size="8" fill="#64748B">Conteneurisé &amp; testé TDD</text>

    <rect x="605" y="390" width="160" height="48" rx="6" fill="#F5F3FF" stroke="#EDE9FE" stroke-width="1" />
    <text x="613" y="406" font-size="9.5" font-weight="700" fill="#6D28D9">4.4 Justification Propriétés</text>
    <text x="613" y="421" font-size="8.5" fill="#475569">Performance, Frugalité Green IT</text>
    <text x="613" y="432" font-size="8" fill="#64748B">Maintenabilité &amp; Réutilisabilité</text>

    <!-- Espace alignement -->
    <rect x="605" y="446" width="160" height="104" rx="6" fill="#FAFAFA" stroke="#E2E8F0" stroke-dasharray="3,3" />
    <text x="685" y="500" text-anchor="middle" font-size="9" fill="#94A3B8">Pitch projet &amp; démo</text>
    <text x="685" y="514" text-anchor="middle" font-size="8" fill="#CBD5E1">Proposition de valeur &amp; RSE</text>

    <!-- Livrable jalon -->
    <rect x="605" y="575" width="160" height="56" rx="6" fill="#7C3AED" />
    <text x="685" y="595" text-anchor="middle" font-size="9.5" font-weight="700" fill="#FFFFFF">LIVRABLE R4</text>
    <text x="685" y="609" text-anchor="middle" font-size="8.5" fill="#EDE9FE">Archi Vues 4+1 &amp; Démo V1</text>
    <text x="685" y="621" text-anchor="middle" font-size="8" font-weight="600" fill="#DDD6FE">Rendu 18/12 · Oral 04/01</text>
  </g>

  <!-- ======================================================== -->
  <!-- LOT 5 : WP5 - DÉVELOPPEMENT & LIVRABLE FINAL (R5)        -->
  <!-- ======================================================== -->
  <g filter="url(#shadow-box)">
    <rect x="785" y="170" width="180" height="475" rx="10" fill="#FFFFFF" stroke="#A7F3D0" stroke-width="1.2" />
    <rect x="785" y="170" width="180" height="40" rx="10" fill="#D1FAE5" />
    <rect x="785" y="195" width="180" height="15" fill="#D1FAE5" />
    <text x="875" y="187" text-anchor="middle" font-size="11" font-weight="700" fill="#047857">LOT 5 · WP5</text>
    <text x="875" y="202" text-anchor="middle" font-size="10" font-weight="600" fill="#064E3B">Dév &amp; Release Finale (R5)</text>

    <rect x="795" y="222" width="160" height="48" rx="6" fill="#ECFDF5" stroke="#D1FAE5" stroke-width="1" />
    <text x="803" y="238" font-size="9.5" font-weight="700" fill="#047857">5.1 Implémentation MVP V1</text>
    <text x="803" y="253" font-size="8.5" fill="#475569">10 US Must Have complètes</text>
    <text x="803" y="264" font-size="8" fill="#64748B">Front-office &amp; Back-office</text>

    <rect x="795" y="278" width="160" height="48" rx="6" fill="#ECFDF5" stroke="#D1FAE5" stroke-width="1" />
    <text x="803" y="294" font-size="9.5" font-weight="700" fill="#047857">5.2 Double Moteur Fidélité</text>
    <text x="803" y="309" font-size="8.5" fill="#475569">Points commerçants &amp; VFP 15j</text>
    <text x="803" y="320" font-size="8" fill="#64748B">Scan express &lt; 3s &amp; Pass papier</text>

    <rect x="795" y="334" width="160" height="48" rx="6" fill="#ECFDF5" stroke="#D1FAE5" stroke-width="1" />
    <text x="803" y="350" font-size="9.5" font-weight="700" fill="#047857">5.3 Mocks &amp; Intégration</text>
    <text x="803" y="365" font-size="8.5" fill="#475569">Titres transport &amp; parking</text>
    <text x="803" y="376" font-size="8" fill="#64748B">Simulation passerelle bancaire</text>

    <rect x="795" y="390" width="160" height="48" rx="6" fill="#ECFDF5" stroke="#D1FAE5" stroke-width="1" />
    <text x="803" y="406" font-size="9.5" font-weight="700" fill="#047857">5.4 Campagne Tests &amp; Homolog.</text>
    <text x="803" y="421" font-size="8.5" fill="#475569">Tests charge, non-régression</text>
    <text x="803" y="432" font-size="8" fill="#64748B">Audit accessibilité RGAA AA</text>

    <!-- Espace alignement -->
    <rect x="795" y="446" width="160" height="104" rx="6" fill="#FAFAFA" stroke="#E2E8F0" stroke-dasharray="3,3" />
    <text x="875" y="500" text-anchor="middle" font-size="9" fill="#94A3B8">Déploiement clé en main</text>
    <text x="875" y="514" text-anchor="middle" font-size="8" fill="#CBD5E1">docker compose up -d</text>

    <!-- Livrable jalon -->
    <rect x="795" y="575" width="160" height="56" rx="6" fill="#059669" />
    <text x="875" y="595" text-anchor="middle" font-size="9.5" font-weight="700" fill="#FFFFFF">LIVRABLE R5</text>
    <text x="875" y="609" text-anchor="middle" font-size="8.5" fill="#D1FAE5">Solution Déployée &amp; Validée</text>
    <text x="875" y="621" text-anchor="middle" font-size="8" font-weight="600" fill="#A7F3D0">Rendu 19/03 · Oral 22/03</text>
  </g>

  <!-- ======================================================== -->
  <!-- LOT 6 : WP6 - EXPLOITATION, RSE & CLÔTURE                -->
  <!-- ======================================================== -->
  <g filter="url(#shadow-box)">
    <rect x="975" y="170" width="180" height="475" rx="10" fill="#FFFFFF" stroke="#CBD5E1" stroke-width="1.2" />
    <rect x="975" y="170" width="180" height="40" rx="10" fill="#F1F5F9" />
    <rect x="975" y="195" width="180" height="15" fill="#F1F5F9" />
    <text x="1065" y="187" text-anchor="middle" font-size="11" font-weight="700" fill="#334155">LOT 6 · WP6</text>
    <text x="1065" y="202" text-anchor="middle" font-size="10" font-weight="600" fill="#0F172A">RSE &amp; Clôture</text>

    <rect x="985" y="222" width="160" height="48" rx="6" fill="#F8FAFC" stroke="#F1F5F9" stroke-width="1" />
    <text x="993" y="238" font-size="9.5" font-weight="700" fill="#334155">6.1 Bilan Frugalité &amp; Green IT</text>
    <text x="993" y="253" font-size="8.5" fill="#475569">Sobriété requêtes SQL &amp; réseau</text>
    <text x="993" y="264" font-size="8" fill="#64748B">Éco-conception logicielle</text>

    <rect x="985" y="278" width="160" height="48" rx="6" fill="#F8FAFC" stroke="#F1F5F9" stroke-width="1" />
    <text x="993" y="294" font-size="9.5" font-weight="700" fill="#334155">6.2 Manuel Exploitation</text>
    <text x="993" y="309" font-size="8.5" fill="#475569">Guide déploiement Docker</text>
    <text x="993" y="320" font-size="8" fill="#64748B">Notice support commerçants</text>

    <rect x="985" y="334" width="160" height="48" rx="6" fill="#F8FAFC" stroke="#F1F5F9" stroke-width="1" />
    <text x="993" y="350" font-size="9.5" font-weight="700" fill="#334155">6.3 Registre RGPD &amp; Clôture</text>
    <text x="993" y="365" font-size="8.5" fill="#475569">Pseudonymisation salée SHA-256</text>
    <text x="993" y="376" font-size="8" fill="#64748B">Conformité CNIL territoriale</text>

    <rect x="985" y="390" width="160" height="48" rx="6" fill="#F8FAFC" stroke="#F1F5F9" stroke-width="1" />
    <text x="993" y="406" font-size="9.5" font-weight="700" fill="#334155">6.4 Rétrospective Globale</text>
    <text x="993" y="421" font-size="8.5" fill="#475569">Bilan agile sur l'année</text>
    <text x="993" y="432" font-size="8" fill="#64748B">Capitalisation des apprentissages</text>

    <!-- Espace alignement -->
    <rect x="985" y="446" width="160" height="104" rx="6" fill="#FAFAFA" stroke="#E2E8F0" stroke-dasharray="3,3" />
    <text x="1065" y="500" text-anchor="middle" font-size="9" fill="#94A3B8">Pérénnité &amp; Passation</text>
    <text x="1065" y="514" text-anchor="middle" font-size="8" fill="#CBD5E1">Documentation ouverte</text>

    <!-- Livrable jalon -->
    <rect x="985" y="575" width="160" height="56" rx="6" fill="#475569" />
    <text x="1065" y="595" text-anchor="middle" font-size="9.5" font-weight="700" fill="#FFFFFF">ARCHIVAGE &amp; BILAN</text>
    <text x="1065" y="609" text-anchor="middle" font-size="8.5" fill="#F1F5F9">Notice Exploitation &amp; RSE</text>
    <text x="1065" y="621" text-anchor="middle" font-size="8" font-weight="600" fill="#CBD5E1">Clôture Session S4</text>
  </g>

</svg>